# xmcd
#
# Track frame offsets:
# 150
# 2553
# 3830
# 4790
# 8953
# 11829
# 14212
# 16624
#
# Disc length: 521 seconds
#
# Revision: 0
# Processed by: cddbd v1.4PL0 Copyright (c) Steve Scherf et al.
# Submitted via: Audion 3.0.2 (http://www.panic.com/audion/)
#
DISCID=47020708
DTITLE=Kathy Goodin - Kathy Goodin
DYEAR=1900
DGENRE=
TTITLE0=Smart Ones "Spotlight"
TTITLE1=Smart Ones "Forbitten Love"
TTITLE2=Amazon.com
TTITLE3=Blue Shield of California
TTITLE4=Cost Plus "Gifts"
TTITLE5=Lucky Stores
TTITLE6=Lincoln-Mercury "Imagine TV/Mercury Sable"
TTITLE7=SBC/Long Distance (Dialogue w/ Brett Abramson)
EXTD=
EXTT0=
EXTT1=
EXTT2=
EXTT3=
EXTT4=
EXTT5=
EXTT6=
EXTT7=
PLAYORDER=
